<svg xmlns="http://www.w3.org/2000/svg" viewBox="0 0 410 404" width="64" height="64">
  <defs>
    <linearGradient id="g" x1="-64.5" y1="84.7" x2="362.9" y2="431.7" gradientUnits="userSpaceOnUse">
      <stop stop-color="#41D1FF"/>
      <stop offset="1" stop-color="#BD34FE"/>
    </linearGradient>
    <linearGradient id="g2" x1="-24.5" y1="-19.8" x2="316.8" y2="304.2" gradientUnits="userSpaceOnUse">
      <stop stop-color="#FFEA83"/>
      <stop offset="0.083" stop-color="#FFDD35"/>
      <stop offset="1" stop-color="#FFA800"/>
    </linearGradient>
  </defs>
  <path d="M399.6 69.4L215.9 388c-7.6 13.2-26.8 13.1-34.3-.2L10.3 69.7c-7.7-13.5 3.1-29.9 18.7-27.3l171.3 29.2a20 20 0 0 0 6.8-.1l172.6-29.3c15.6-2.7 26.5 13.8 18.7 27.3Z" fill="url(#g)"/>
  <path d="M292.5 68.1L157.6 92.7a12 12 0 0 0-9.8 9.3l-20.5 115.5c-1.5 8.3 7.1 14.8 14.7 10.8l39.4-20.8a12 12 0 0 1 17.2 9.6l6.6 59.6c.9 8 11.6 10.5 16 3.7l7.1-11.3 69.7-174.4c3.1-7.8-4.2-16-12.5-14.9Z" fill="url(#g2)"/>
</svg>
